<svg xmlns="http://www.w3.org/2000/svg" xmlns:xlink="http://www.w3.org/1999/xlink" width="60" zoomAndPan="magnify" viewBox="0 0 45 44.999999" height="60" preserveAspectRatio="xMidYMid meet" version="1.0"><defs><clipPath id="a9de9f4185"><path d="M 1.144531 1.773438 L 43.894531 1.773438 L 43.894531 40.023438 L 1.144531 40.023438 Z M 1.144531 1.773438 " clip-rule="nonzero"/></clipPath><clipPath id="68e3ca8cc6"><path d="M 21.488281 11.125 L 32.738281 11.125 L 32.738281 30.625 L 21.488281 30.625 Z M 21.488281 11.125 " clip-rule="nonzero"/></clipPath><clipPath id="6b8ad37731"><path d="M 12.386719 19.214844 L 31.886719 19.214844 L 31.886719 22.214844 L 12.386719 22.214844 Z M 12.386719 19.214844 " clip-rule="nonzero"/></clipPath></defs><path fill="#eae8e8" d="M 7.386719 3.226562 L 37.648438 3.226562 C 40.300781 3.226562 42.453125 5.394531 42.453125 8.070312 L 42.453125 33.730469 C 42.453125 36.40625 40.300781 38.570312 37.648438 38.570312 L 7.386719 38.570312 C 4.734375 38.570312 2.585938 36.40625 2.585938 33.730469 L 2.585938 8.070312 C 2.585938 5.394531 4.734375 3.226562 7.386719 3.226562 Z M 7.386719 3.226562 " fill-opacity="1" fill-rule="evenodd"/><g clip-path="url(#a9de9f4185)"><path stroke-linecap="butt" transform="matrix(0.480337, 0, 0, 0.484177, 1.144977, 1.774754)" fill="none" stroke-linejoin="miter" d="M 12.994505 2.998506 L 75.995521 2.998506 C 81.51736 2.998506 85.998263 7.476141 85.998263 13.002592 L 85.998263 66.000044 C 85.998263 71.526494 81.51736 75.996062 75.995521 75.996062 L 12.994505 75.996062 C 7.472666 75.996062 2.999895 71.526494 2.999895 66.000044 L 2.999895 13.002592 C 2.999895 7.476141 7.472666 2.998506 12.994505 2.998506 Z M 12.994505 2.998506 " stroke="#1e1e1e" stroke-width="3" stroke-opacity="1" stroke-miterlimit="10"/></g><g clip-path="url(#68e3ca8cc6)"><path stroke-linecap="butt" transform="matrix(0.511364, 0, 0, 0.513158, 21.488762, 11.123595)" fill="none" stroke-linejoin="miter" d="M 2.115031 2.545206 L 18.645588 19.00274 L 2.115031 35.452661 " stroke="#1e1e1e" stroke-width="3" stroke-opacity="1" stroke-miterlimit="10"/></g><g clip-path="url(#6b8ad37731)"><path stroke-linecap="butt" transform="matrix(0.513158, 0, 0, 0.5, 12.38764, 19.213481)" fill="none" stroke-linejoin="miter" d="M 1.86319 3.268351 L 36.863995 3.119913 " stroke="#1e1e1e" stroke-width="3" stroke-opacity="1" stroke-miterlimit="10"/></g></svg>