<svg xmlns="http://www.w3.org/2000/svg" xmlns:xlink="http://www.w3.org/1999/xlink" width="60" zoomAndPan="magnify" viewBox="0 0 45 44.999999" height="60" preserveAspectRatio="xMidYMid meet" version="1.0"><defs><clipPath id="765dc67a1e"><path d="M 1.144531 1.773438 L 43.894531 1.773438 L 43.894531 40.023438 L 1.144531 40.023438 Z M 1.144531 1.773438 " clip-rule="nonzero"/></clipPath><clipPath id="9e9e7b3090"><path d="M 12.136719 10.617188 L 24.136719 10.617188 L 24.136719 30.117188 L 12.136719 30.117188 Z M 12.136719 10.617188 " clip-rule="nonzero"/></clipPath><clipPath id="fce7803d0e"><path d="M 13.144531 19.214844 L 32.644531 19.214844 L 32.644531 22.214844 L 13.144531 22.214844 Z M 13.144531 19.214844 " clip-rule="nonzero"/></clipPath></defs><path fill="#eae8e8" d="M 7.386719 3.226562 L 37.648438 3.226562 C 40.300781 3.226562 42.453125 5.394531 42.453125 8.070312 L 42.453125 33.730469 C 42.453125 36.40625 40.300781 38.570312 37.648438 38.570312 L 7.386719 38.570312 C 4.734375 38.570312 2.585938 36.40625 2.585938 33.730469 L 2.585938 8.070312 C 2.585938 5.394531 4.734375 3.226562 7.386719 3.226562 Z M 7.386719 3.226562 " fill-opacity="1" fill-rule="evenodd"/><g clip-path="url(#765dc67a1e)"><path stroke-linecap="butt" transform="matrix(0.480337, 0, 0, 0.484177, 1.144977, 1.774754)" fill="none" stroke-linejoin="miter" d="M 12.994505 2.998506 L 75.995521 2.998506 C 81.51736 2.998506 85.998263 7.476141 85.998263 13.002592 L 85.998263 66.000044 C 85.998263 71.526494 81.51736 75.996062 75.995521 75.996062 L 12.994505 75.996062 C 7.472666 75.996062 2.999895 71.526494 2.999895 66.000044 L 2.999895 13.002592 C 2.999895 7.476141 7.472666 2.998506 12.994505 2.998506 Z M 12.994505 2.998506 " stroke="#1e1e1e" stroke-width="3" stroke-opacity="1" stroke-miterlimit="10"/></g><g clip-path="url(#9e9e7b3090)"><path stroke-linecap="butt" transform="matrix(0.521739, 0, 0, 0.5, 12.134831, 10.617977)" fill="none" stroke-linejoin="miter" d="M 20.255898 3.045296 L 3.732134 19.498421 L 20.255898 35.951546 " stroke="#1e1e1e" stroke-width="3" stroke-opacity="1" stroke-miterlimit="10"/></g><g clip-path="url(#fce7803d0e)"><path stroke-linecap="butt" transform="matrix(0.513158, 0, 0, 0.5, 13.146067, 19.213481)" fill="none" stroke-linejoin="miter" d="M 36.512636 2.768351 L 1.511831 2.619913 " stroke="#1e1e1e" stroke-width="3" stroke-opacity="1" stroke-miterlimit="10"/></g></svg>